<svg width="282" height="160" viewBox="0 0 282 160" fill="none" xmlns="http://www.w3.org/2000/svg">
<rect x="40" width="202" height="96" fill="#397EE7"/>
<rect x="42" y="10" width="198" height="86" fill="#DBECFF"/>
<path d="M218 17L219.796 22.5279H225.608L220.906 25.9443L222.702 31.4721L218 28.0557L213.298 31.4721L215.094 25.9443L210.392 22.5279H216.204L218 17Z" fill="#397EE7"/>
<path d="M179 30L197 61H161L179 30Z" fill="#39619C"/>
<path d="M194.5 24L216 61H173L194.5 24Z" fill="#397EE7"/>
<path d="M194.5 24L198.5 31H190.5L194.5 24Z" fill="white"/>
<rect x="45" y="21" width="32" height="4" fill="#397EE7"/>
<rect x="45" y="35" width="78" height="2" fill="#397EE7"/>
<rect x="45" y="41" width="76" height="2" fill="#397EE7"/>
<rect x="45" y="47" width="75" height="2" fill="#397EE7"/>
<rect x="45" y="53" width="80" height="2" fill="#397EE7"/>
<rect x="45" y="59" width="70" height="2" fill="#397EE7"/>
<rect x="45" y="75" width="59" height="21" fill="#397EE7"/>
<rect x="109" y="75" width="64" height="21" fill="#397EE7"/>
<rect x="178" y="75" width="59" height="21" fill="#397EE7"/>
<rect x="12" y="116" width="124" height="44" fill="#DBECFF"/>
<rect x="139" y="96" width="4" height="13" fill="#184B97"/>
<rect x="72" y="105" width="4" height="11" fill="#184B97"/>
<rect x="206" y="105" width="4" height="11" fill="#184B97"/>
<rect x="72" y="105" width="138" height="4" fill="#184B97"/>
<rect x="12" y="116" width="124" height="8" fill="#184B97"/>
<rect x="40" width="202" height="10" fill="#184B97"/>
<circle cx="45" cy="5" r="3" fill="#DBECFF"/>
<rect x="50" y="3" width="22" height="4" fill="#DBECFF"/>
<circle cx="16" cy="120" r="2" fill="#DBECFF"/>
<rect x="20" y="119" width="22" height="2" fill="#DBECFF"/>
<rect x="17" y="134" width="32" height="4" fill="#184B97"/>
<rect x="17" y="143" width="58" height="2" fill="#184B97"/>
<rect x="17" y="149" width="58" height="2" fill="#184B97"/>
<rect x="17" y="155" width="58" height="2" fill="#184B97"/>
<circle cx="123" cy="150" r="8" fill="#184B97"/>
<rect x="146" y="116" width="124" height="44" fill="#DBECFF"/>
<rect x="146" y="116" width="124" height="8" fill="#184B97"/>
<circle cx="150" cy="120" r="2" fill="#DBECFF"/>
<rect x="154" y="119" width="22" height="2" fill="#DBECFF"/>
<rect x="151" y="134" width="32" height="4" fill="#184B97"/>
<rect x="151" y="143" width="58" height="2" fill="#184B97"/>
<rect x="151" y="149" width="58" height="2" fill="#184B97"/>
<rect x="151" y="155" width="58" height="2" fill="#184B97"/>
<circle cx="257" cy="150" r="8" fill="#184B97"/>
</svg>
