<svg width="282" height="160" viewBox="0 0 282 160" fill="none" xmlns="http://www.w3.org/2000/svg">
<rect width="282" height="160" fill="#DBECFF"/>
<rect width="282" height="10" fill="#397EE7"/>
<rect x="40" y="60" width="202" height="61" fill="#397EE7"/>
<rect x="40" y="20" width="202" height="20" fill="#397EE7"/>
<rect x="51" y="25" width="30" height="10" fill="#184B97"/>
<rect x="101" y="25" width="30" height="10" fill="#184B97"/>
<rect x="151" y="25" width="30" height="10" fill="#184B97"/>
<rect x="201" y="25" width="30" height="10" fill="#184B97"/>
<path d="M218 67L219.796 72.5279H225.608L220.906 75.9443L222.702 81.4721L218 78.0557L213.298 81.4721L215.094 75.9443L210.392 72.5279H216.204L218 67Z" fill="#184B97"/>
<path d="M179 80L197 111H161L179 80Z" fill="#39619C"/>
<path d="M194.5 74L216 111H173L194.5 74Z" fill="#184B97"/>
<path d="M194.5 74L198.5 81H190.5L194.5 74Z" fill="#DBECFF"/>
<rect x="45" y="71" width="32" height="4" fill="#184B97"/>
<rect x="45" y="85" width="80" height="2" fill="#184B97"/>
<rect x="45" y="91" width="80" height="2" fill="#184B97"/>
<rect x="45" y="97" width="80" height="2" fill="#184B97"/>
<rect x="45" y="71" width="32" height="4" fill="#184B97"/>
<rect x="45" y="85" width="80" height="2" fill="#184B97"/>
<rect x="45" y="91" width="80" height="2" fill="#184B97"/>
<rect x="45" y="97" width="80" height="2" fill="#184B97"/>
<rect x="45" y="103" width="80" height="2" fill="#184B97"/>
<rect x="45" y="109" width="47" height="2" fill="#184B97"/>
<rect x="40" y="138" width="64" height="22" fill="#397EE7"/>
<rect x="109" y="138" width="64" height="22" fill="#397EE7"/>
<rect x="178" y="138" width="64" height="22" fill="#397EE7"/>
</svg>
