<svg width="282" height="160" viewBox="0 0 282 160" fill="none" xmlns="http://www.w3.org/2000/svg">
<rect width="282" height="160" fill="#DBECFF"/>
<rect width="282" height="10" fill="#397EE7"/>
<rect x="40" y="24" width="202" height="12" fill="#397EE7"/>
<rect x="45" y="27" width="42" height="6" fill="#DBECFF"/>
<rect x="92" y="27" width="47" height="6" fill="#DBECFF"/>
<rect x="144" y="27" width="47" height="6" fill="#DBECFF"/>
<rect x="196" y="27" width="42" height="6" fill="#DBECFF"/>
<rect x="40" y="46" width="47" height="50" fill="#397EE7"/>
<rect x="45" y="51" width="37" height="25" fill="#DBECFF"/>
<path d="M73.6783 53L74.4244 55.2961H76.8386L74.8855 56.7151L75.6315 59.0111L73.6783 57.5921L71.7252 59.0111L72.4712 56.7151L70.5181 55.2961H72.9323L73.6783 53Z" fill="#184B97"/>
<path d="M57.4765 58.3997L64.953 71.2758H50L57.4765 58.3997Z" fill="#39619C"/>
<path d="M63.9146 55.9077L72.8449 71.276H54.9844L63.9146 55.9077Z" fill="#184B97"/>
<path d="M63.9193 55.9077L65.5807 58.8152H62.2578L63.9193 55.9077Z" fill="#397EE7"/>
<circle cx="229.5" cy="11.5" r="8" fill="#397EE7" stroke="#DBECFF"/>
<rect x="226.5" y="9.5" width="6" height="6" rx="0.5" stroke="#DBECFF"/>
<rect x="228.5" y="6.5" width="2" height="3" rx="0.5" stroke="#DBECFF"/>
<rect x="45" y="81" width="37" height="4" fill="#184B97"/>
<rect x="45" y="87" width="11" height="4" fill="#184B97"/>
<rect x="92" y="46" width="47" height="50" fill="#397EE7"/>
<rect x="97" y="51" width="37" height="25" fill="#DBECFF"/>
<path d="M125.678 53L126.424 55.2961H128.839L126.885 56.7151L127.631 59.0111L125.678 57.5921L123.725 59.0111L124.471 56.7151L122.518 55.2961H124.932L125.678 53Z" fill="#184B97"/>
<path d="M109.476 58.3997L116.953 71.2758H102L109.476 58.3997Z" fill="#39619C"/>
<path d="M115.915 55.9077L124.845 71.276H106.984L115.915 55.9077Z" fill="#184B97"/>
<path d="M115.919 55.9077L117.581 58.8152H114.258L115.919 55.9077Z" fill="#397EE7"/>
<rect x="97" y="81" width="37" height="4" fill="#184B97"/>
<rect x="97" y="87" width="11" height="4" fill="#184B97"/>
<rect x="144" y="46" width="47" height="50" fill="#397EE7"/>
<rect x="149" y="51" width="37" height="25" fill="#DBECFF"/>
<path d="M177.678 53L178.424 55.2961H180.839L178.885 56.7151L179.631 59.0111L177.678 57.5921L175.725 59.0111L176.471 56.7151L174.518 55.2961H176.932L177.678 53Z" fill="#184B97"/>
<path d="M161.476 58.3997L168.953 71.2758H154L161.476 58.3997Z" fill="#39619C"/>
<path d="M167.915 55.9077L176.845 71.276H158.984L167.915 55.9077Z" fill="#184B97"/>
<path d="M167.919 55.9077L169.581 58.8152H166.258L167.919 55.9077Z" fill="#397EE7"/>
<rect x="149" y="81" width="37" height="4" fill="#184B97"/>
<rect x="149" y="87" width="11" height="4" fill="#184B97"/>
<rect x="196" y="46" width="47" height="50" fill="#397EE7"/>
<rect x="201" y="51" width="37" height="25" fill="#DBECFF"/>
<path d="M229.678 53L230.424 55.2961H232.839L230.885 56.7151L231.631 59.0111L229.678 57.5921L227.725 59.0111L228.471 56.7151L226.518 55.2961H228.932L229.678 53Z" fill="#184B97"/>
<path d="M213.476 58.3997L220.953 71.2758H206L213.476 58.3997Z" fill="#39619C"/>
<path d="M219.915 55.9077L228.845 71.276H210.984L219.915 55.9077Z" fill="#184B97"/>
<path d="M219.919 55.9077L221.581 58.8152H218.258L219.919 55.9077Z" fill="#397EE7"/>
<rect x="201" y="81" width="37" height="4" fill="#184B97"/>
<rect x="201" y="87" width="11" height="4" fill="#184B97"/>
<rect x="40" y="101" width="47" height="50" fill="#397EE7"/>
<rect x="45" y="106" width="37" height="25" fill="#DBECFF"/>
<path d="M73.6783 108L74.4244 110.296H76.8386L74.8855 111.715L75.6315 114.011L73.6783 112.592L71.7252 114.011L72.4712 111.715L70.5181 110.296H72.9323L73.6783 108Z" fill="#184B97"/>
<path d="M57.4765 113.4L64.953 126.276H50L57.4765 113.4Z" fill="#39619C"/>
<path d="M63.9146 110.908L72.8449 126.276H54.9844L63.9146 110.908Z" fill="#184B97"/>
<path d="M63.9193 110.908L65.5807 113.815H62.2578L63.9193 110.908Z" fill="#397EE7"/>
<rect x="45" y="136" width="37" height="4" fill="#184B97"/>
<rect x="45" y="142" width="11" height="4" fill="#184B97"/>
<rect x="92" y="101" width="47" height="50" fill="#397EE7"/>
<rect x="97" y="106" width="37" height="25" fill="#DBECFF"/>
<path d="M125.678 108L126.424 110.296H128.839L126.885 111.715L127.631 114.011L125.678 112.592L123.725 114.011L124.471 111.715L122.518 110.296H124.932L125.678 108Z" fill="#184B97"/>
<path d="M109.476 113.4L116.953 126.276H102L109.476 113.4Z" fill="#39619C"/>
<path d="M115.915 110.908L124.845 126.276H106.984L115.915 110.908Z" fill="#184B97"/>
<path d="M115.919 110.908L117.581 113.815H114.258L115.919 110.908Z" fill="#397EE7"/>
<rect x="97" y="136" width="37" height="4" fill="#184B97"/>
<rect x="97" y="142" width="11" height="4" fill="#184B97"/>
<rect x="144" y="101" width="47" height="50" fill="#397EE7"/>
<rect x="149" y="106" width="37" height="25" fill="#DBECFF"/>
<path d="M177.678 108L178.424 110.296H180.839L178.885 111.715L179.631 114.011L177.678 112.592L175.725 114.011L176.471 111.715L174.518 110.296H176.932L177.678 108Z" fill="#184B97"/>
<path d="M161.476 113.4L168.953 126.276H154L161.476 113.4Z" fill="#39619C"/>
<path d="M167.915 110.908L176.845 126.276H158.984L167.915 110.908Z" fill="#184B97"/>
<path d="M167.919 110.908L169.581 113.815H166.258L167.919 110.908Z" fill="#397EE7"/>
<rect x="149" y="136" width="37" height="4" fill="#184B97"/>
<rect x="149" y="142" width="11" height="4" fill="#184B97"/>
<rect x="196" y="101" width="47" height="50" fill="#397EE7"/>
<rect x="201" y="106" width="37" height="25" fill="#DBECFF"/>
<path d="M229.678 108L230.424 110.296H232.839L230.885 111.715L231.631 114.011L229.678 112.592L227.725 114.011L228.471 111.715L226.518 110.296H228.932L229.678 108Z" fill="#184B97"/>
<path d="M213.476 113.4L220.953 126.276H206L213.476 113.4Z" fill="#39619C"/>
<path d="M219.915 110.908L228.845 126.276H210.984L219.915 110.908Z" fill="#184B97"/>
<path d="M219.919 110.908L221.581 113.815H218.258L219.919 110.908Z" fill="#397EE7"/>
<rect x="201" y="136" width="37" height="4" fill="#184B97"/>
<rect x="201" y="142" width="11" height="4" fill="#184B97"/>
</svg>
