<svg width="42" height="164" fill="none" xmlns="http://www.w3.org/2000/svg"><path d="M8.22 163.71l12.778-12.966 12.783 12.966L42 155.371l-12.783-12.966L42 129.44l-8.22-8.339-12.782 12.965L8.22 121.101 0 129.44l12.779 12.965L0 155.371l8.22 8.339zm0-61.436L20.997 89.61l12.783 12.664L42 94.128 29.217 81.464 42 68.797l-8.22-8.142L20.999 73.32 8.22 60.655 0 68.797l12.779 12.667L0 94.128l8.22 8.146zm0-60.446l12.778-12.663 12.783 12.663L42 33.684 29.217 21.02 42 8.354 33.78.21 20.999 12.876 8.22.21 0 8.354l12.779 12.667L0 33.684l8.22 8.144z" fill="#397ee7"/></svg>