<svg width="470" height="470" fill="none" xmlns="http://www.w3.org/2000/svg"><mask id="a" style="mask-type:alpha" maskUnits="userSpaceOnUse" x="0" y="0" width="470" height="470"><path fill="#C4C4C4" d="M0 0h470v470H0z"/></mask><g mask="url(#a)" stroke="#397ee7"><path d="M-.354 469.646l470-470m-675.945 323.018l470-470m-90.582 803.273l470-470m-896.418 82.891l470-470m-90.582 803.273l470-470M72.283 549.119l470-470M-55.044 420.937l470-470M25.283 495.282l470-470m-597.327 341.819l470-470m-548.619 451.2l470-470m-90.581 803.273l470-470m-896.419 82.891l470-470m-90.581 803.272l470-470M97.919 574.756l470-470M-29.408 446.574l470-470M50.919 520.919l470-470M-76.408 392.737l470-470m-548.618 451.2l470-470M224.392 707.21l470-470"/></g></svg>