<svg width="151" height="151" fill="none" xmlns="http://www.w3.org/2000/svg"><mask id="a" style="mask-type:alpha" maskUnits="userSpaceOnUse" x="0" y="0" width="132" height="132"><path fill="#C4C4C4" d="M0 0h132v132H0z"/></mask><g mask="url(#a)" stroke="#397ee7"><path d="M-.354 131.646l132-132m-189.84 90.72l132-132m-25.44 225.601l132-132m-251.76 23.279l132-132m-25.44 225.601l132-132M20.047 153.967l131.999-132m-167.759 96l131.999-132M6.846 138.847l132-132m-167.76 96l132-132M-50.994 97.566l132-132m-25.44 225.6l132-132m-251.76 23.28l132-132m-25.44 225.601l132-132M27.246 161.166l132-132m-167.76 96l132-132M14.046 146.047l132-132m-167.759 96l131.999-132m-154.08 126.72l132.001-132M62.766 198.366l132-132"/></g><path d="M147.289 50H52.711A2.711 2.711 0 0050 52.712v94.576A2.712 2.712 0 0052.71 150h94.577a2.712 2.712 0 002.712-2.711V52.712a2.711 2.711 0 00-2.71-2.712z" stroke="#F5F5F5" stroke-width=".77" stroke-miterlimit="10"/></svg>