<svg width="157" height="369" fill="none" xmlns="http://www.w3.org/2000/svg"><path d="M52.22 368.71l12.778-12.966 12.783 12.966L86 360.371l-12.783-12.966L86 334.44l-8.22-8.339-12.782 12.965-12.779-12.965L44 334.44l12.779 12.965L44 360.371l8.22 8.339zm0-61.436l12.778-12.664 12.783 12.664L86 299.128l-12.783-12.664L86 273.797l-8.22-8.142-12.782 12.664-12.779-12.664L44 273.797l12.779 12.667L44 299.128l8.22 8.146zm0-60.446l12.778-12.663 12.783 12.663L86 238.684l-12.783-12.663L86 213.354l-8.22-8.144-12.782 12.666L52.22 205.21 44 213.354l12.779 12.667L44 238.684l8.22 8.144z" fill="#397ee7"/><mask id="a" style="mask-type:alpha" maskUnits="userSpaceOnUse" x="0" y="0" width="157" height="157"><path fill="#C4C4C4" d="M0 0h157v157H0z"/></mask><g mask="url(#a)" stroke="#397ee7"><path d="M-.354 156.646l157-157M-69.148 107.548l157-157M57.594 218.876l157-157M-84.848 89.564l157-157M41.894 200.892l157-157M23.91 183.193l157-157M-18.623 140.376l157-157M8.21 165.21l157-157M-34.322 122.392l156.999-157m-183.261 150.72l157-157M66.157 227.439l157-157M-76.285 98.128l157-157M50.458 209.455l157-157M32.474 191.758l157-157M-10.059 148.939l157-157M16.774 173.773l157-157M-25.759 130.956l157-157m-183.262 150.72l157-157M74.721 236.003l157-157"/></g></svg>