<svg width="33" height="32" fill="none" xmlns="http://www.w3.org/2000/svg"><path d="M22.46.004H10.506c-5.5 0-9.934 4.434-9.934 9.91v11.9c0 5.475 4.434 9.977 9.934 9.977H22.46c5.501 0 10.036-4.502 10.036-9.978v-11.9c0-5.475-4.535-9.91-10.036-9.91zm7.028 21.81c0 3.826-3.183 6.97-7.027 6.97H10.505c-3.845 0-6.994-3.144-6.994-6.97v-11.9c0-3.828 3.15-6.97 6.994-6.97H22.46c3.845 0 7.028 3.142 7.028 6.97v11.9z" fill="#397ee7"/><path d="M16.483 7.93c-4.401 0-7.97 3.552-7.97 7.933 0 4.38 3.569 7.933 7.97 7.933s7.97-3.552 7.97-7.933-3.569-7.933-7.97-7.933zm0 12.891c-2.745 0-4.98-2.225-4.98-4.958 0-2.735 2.235-4.958 4.98-4.958 2.745 0 4.98 2.223 4.98 4.958 0 2.733-2.235 4.958-4.98 4.958zM25.05 6.278a1.06 1.06 0 00-1.062 1.057 1.06 1.06 0 001.062 1.058 1.06 1.06 0 001.062-1.058 1.06 1.06 0 00-1.062-1.057z" fill="#397ee7"/></svg>