<svg width="35" height="36" fill="none" xmlns="http://www.w3.org/2000/svg"><g clip-path="url(#clip0_4519_1243)"><path d="M17.5.5C10.855.5 5.469 5.886 5.469 12.531 5.469 19.176 17.5 35.5 17.5 35.5s12.031-16.324 12.031-22.969S24.145.5 17.5.5zM7.656 12.531c0-5.428 4.416-9.844 9.844-9.844 5.428 0 9.844 4.416 9.844 9.844 0 3.781-5.471 12.91-9.844 19.206-4.373-6.296-9.844-15.425-9.844-19.206zM17.5 7.062A5.468 5.468 0 1017.5 18a5.468 5.468 0 100-10.938zm0 8.75a3.285 3.285 0 01-3.281-3.28A3.285 3.285 0 0117.5 9.25a3.285 3.285 0 013.281 3.281 3.285 3.285 0 01-3.281 3.281z" fill="#f5f5f5"/></g><defs><clipPath id="clip0_4519_1243"><path fill="#fff" transform="translate(0 .5)" d="M0 0h35v35H0z"/></clipPath></defs></svg>