<svg width="35" height="36" fill="none" xmlns="http://www.w3.org/2000/svg"><g clip-path="url(#clip0_4519_1247)" fill="#f5f5f5"><path d="M30.369.5H4.631C2.077.5 0 2.536 0 5.04v18.92c0 2.504 2.077 4.54 4.631 4.54h25.738c2.553 0 4.631-2.036 4.631-4.54V5.04C35 2.535 32.922.5 30.369.5zm1.803 23.46c0 .975-.809 1.768-1.803 1.768H4.631c-.994 0-1.803-.793-1.803-1.767V5.039c0-.974.809-1.767 1.803-1.767h25.738c.994 0 1.803.793 1.803 1.767v18.922z"/><path d="M34.744 7.538a1.414 1.414 0 00-1.969-.348L17.5 17.883 2.225 7.19A1.414 1.414 0 10.603 9.507l16.086 11.26a1.412 1.412 0 001.622 0l16.086-11.26c.64-.448.795-1.33.347-1.97z"/></g><defs><clipPath id="clip0_4519_1247"><path fill="#fff" transform="translate(0 .5)" d="M0 0h35v35H0z"/></clipPath></defs></svg>