<svg width="35" height="36" fill="none" xmlns="http://www.w3.org/2000/svg"><g clip-path="url(#clip0_4519_1238)" fill="#f5f5f5"><path d="M25.65 35.085a17.294 17.294 0 01-4.04-.51c-4.564-1.1-9.264-3.894-13.232-7.866C4.41 22.738 1.613 18.037.512 13.477c-1.16-4.797-.333-8.9 2.326-11.56l.759-.759a3.674 3.674 0 015.19 0L13.15 5.52a3.672 3.672 0 010 5.19l-2.576 2.576c1.235 2.168 2.915 4.337 4.901 6.323 1.986 1.986 4.157 3.667 6.324 4.902l2.576-2.577a3.67 3.67 0 015.19 0l4.362 4.362a3.67 3.67 0 010 5.19l-.76.759c-1.875 1.877-4.469 2.84-7.516 2.84zM6.192 2.695a1.045 1.045 0 00-.748.31l-.76.759c-1.99 1.991-2.572 5.223-1.637 9.097.99 4.102 3.538 8.366 7.174 12.001 3.636 3.636 7.899 6.181 12.002 7.174 3.875.935 7.105.354 9.096-1.637l.76-.76a1.059 1.059 0 000-1.496l-4.361-4.361a1.059 1.059 0 00-1.497 0l-3.265 3.265a1.306 1.306 0 01-1.524.237c-2.677-1.384-5.376-3.4-7.804-5.828-2.43-2.43-4.44-5.126-5.828-7.803a1.306 1.306 0 01.236-1.524l3.266-3.265a1.058 1.058 0 000-1.497L6.941 3.005a1.05 1.05 0 00-.749-.31z"/><path d="M27.045 19.386a1.306 1.306 0 01-1.306-1.306A8.651 8.651 0 0017.1 9.44a1.306 1.306 0 010-2.612c6.204 0 11.252 5.05 11.252 11.253a1.306 1.306 0 01-1.306 1.306z"/><path d="M32.564 19.387a1.306 1.306 0 01-1.305-1.306c0-7.808-6.356-14.16-14.16-14.16a1.306 1.306 0 010-2.612c9.248 0 16.771 7.524 16.771 16.772a1.306 1.306 0 01-1.306 1.306z"/></g><defs><clipPath id="clip0_4519_1238"><path fill="#fff" transform="translate(0 .5)" d="M0 0h35v35H0z"/></clipPath></defs></svg>