<svg width="35" height="20" fill="none" xmlns="http://www.w3.org/2000/svg"><path d="M34.815 18.05a2.406 2.406 0 00-.12-.228c-.606-1.094-1.767-2.436-3.48-4.027l-.036-.037-.018-.018-.018-.018h-.019c-.777-.741-1.27-1.24-1.476-1.495-.377-.486-.461-.978-.255-1.476.145-.377.693-1.172 1.64-2.387.498-.644.893-1.16 1.184-1.549 2.102-2.794 3.013-4.58 2.734-5.357l-.109-.182c-.073-.11-.261-.21-.564-.3-.304-.092-.693-.107-1.167-.046l-5.248.036c-.085-.03-.206-.027-.365.01l-.237.054-.091.046-.073.054a.81.81 0 00-.2.192 1.25 1.25 0 00-.182.319 29.758 29.758 0 01-1.95 4.1c-.45.753-.862 1.406-1.24 1.959-.376.552-.692.96-.947 1.22a6.487 6.487 0 01-.692.629c-.207.158-.365.225-.474.2-.11-.024-.212-.048-.31-.072a1.212 1.212 0 01-.41-.447 2 2 0 01-.21-.71 7.843 7.843 0 01-.063-.739c-.006-.206-.003-.498.01-.874.012-.377.017-.632.017-.766 0-.462.01-.963.027-1.503l.046-1.285c.013-.316.018-.65.018-1.002s-.021-.629-.064-.83a2.832 2.832 0 00-.19-.583.982.982 0 00-.374-.437 2.105 2.105 0 00-.61-.246c-.644-.146-1.464-.225-2.46-.237-2.26-.024-3.712.122-4.356.438a2.454 2.454 0 00-.692.546c-.22.268-.25.414-.092.438.73.109 1.245.37 1.55.783l.109.219c.085.158.17.437.255.838.085.401.14.844.164 1.33.06.887.06 1.646 0 2.278a27.096 27.096 0 01-.173 1.476 2.957 2.957 0 01-.246.857c-.11.218-.183.352-.22.4a.315.315 0 01-.09.092c-.158.06-.322.09-.492.09-.17 0-.377-.084-.62-.254a4.372 4.372 0 01-.756-.702c-.261-.298-.556-.714-.884-1.248a21.782 21.782 0 01-1.02-1.895l-.292-.53c-.182-.34-.431-.834-.747-1.484A28.629 28.629 0 017.4 1.804a1.201 1.201 0 00-.438-.583l-.09-.055a1.257 1.257 0 00-.292-.155 1.934 1.934 0 00-.42-.119L1.168.93c-.51 0-.857.115-1.04.346l-.072.11A.59.59 0 000 1.675c0 .134.036.298.11.492a60.139 60.139 0 002.377 4.957c.857 1.591 1.601 2.873 2.233 3.845a45.325 45.325 0 001.931 2.751c.656.863 1.09 1.416 1.303 1.659.213.243.38.425.501.546l.456.437c.292.292.72.641 1.285 1.048.565.407 1.19.808 1.877 1.203.686.395 1.485.717 2.396.966a8.269 8.269 0 002.66.3h2.096c.425-.036.747-.17.966-.4l.073-.092c.049-.072.094-.185.136-.336.043-.152.064-.32.064-.501a6 6 0 01.118-1.412c.091-.42.195-.735.31-.948.116-.213.247-.392.392-.537.146-.146.25-.234.31-.265.061-.03.11-.051.146-.063.291-.098.635-.004 1.03.282s.765.638 1.111 1.057c.347.42.763.89 1.249 1.412.486.523.91.911 1.275 1.167l.364.218c.244.146.56.28.949.401.388.122.728.152 1.02.091l4.665-.072c.461 0 .82-.077 1.075-.228.255-.152.407-.32.455-.502.05-.182.052-.388.01-.62a2.294 2.294 0 00-.128-.482z" fill="#397ee7"/></svg>